<?xml version="1.0" standalone="no"?>
<!DOCTYPE svg PUBLIC "-//W3C//DTD SVG 1.1//EN" "http://www.w3.org/Graphics/SVG/1.1/DTD/svg11.dtd">
<svg xmlns="http://www.w3.org/2000/svg" xmlns:xlink="http://www.w3.org/1999/xlink" version="1.1">
  <symbol id="tabler-filled-brand-github" viewBox="0 0 24 24" fill="currentcolor" xmlns="http://www.w3.org/2000/svg">
    <g clip-path="url(#clip0_6536_2710)">
      <path d="M5.31499 2.09988C6.10599 1.98688 7.21499 2.24488 8.64799 3.06588L8.91999 3.22688L9.07999 3.32688L9.47699 3.24388C10.9908 2.95137 12.5439 2.9243 14.067 3.16388L14.523 3.24388L14.919 3.32688L15.08 3.22688C16.465 2.38688 17.567 2.05688 18.402 2.07888L18.566 2.08688L18.713 2.10388L18.789 2.11788L18.839 2.12888L18.983 2.17588C19.2188 2.27334 19.4084 2.45721 19.513 2.68988C19.9222 3.60158 20.06 4.61188 19.91 5.59988L19.863 5.86688L19.817 6.06288L19.94 6.22588C20.514 7.02088 20.87 7.95388 20.97 8.93288L20.993 9.22788L21 9.49988C21 13.3549 19.341 15.3829 16.356 16.1799L16.111 16.2409L15.979 16.2699L15.993 16.4309L16.001 16.5879L16.005 16.9529L16.003 17.1659L16 20.9999C16 21.2448 15.91 21.4812 15.7473 21.6643C15.5845 21.8473 15.3602 21.9642 15.117 21.9929L15 21.9999H8.99999C8.75506 21.9998 8.51865 21.9099 8.33562 21.7472C8.15258 21.5844 8.03565 21.3601 8.00699 21.1169L7.99999 20.9999V20.2659C6.18199 20.5259 4.96999 19.8419 3.88999 18.3879L3.35499 17.6219C3.07499 17.2259 2.89999 17.0429 2.76599 16.9779L2.71799 16.9589C2.4704 16.8784 2.26395 16.7046 2.14251 16.4743C2.02107 16.244 1.99422 15.9755 2.06766 15.7257C2.1411 15.476 2.30905 15.2647 2.53581 15.1368C2.76257 15.0089 3.03026 14.9745 3.28199 15.0409C3.92399 15.2289 4.35599 15.6089 4.85199 16.2799L5.38999 17.0489C6.14999 18.1279 6.74999 18.5079 7.99899 18.2399L7.99999 17.5619L7.98199 17.3939C7.95246 17.1202 7.94544 16.8447 7.96099 16.5699L7.97799 16.3849L7.99699 16.2649L7.88899 16.2409C4.91299 15.5309 3.18599 13.6679 3.01399 10.1019L3.00399 9.79188L2.99999 9.49988C3.00115 8.41646 3.31656 7.35663 3.90799 6.44888L4.05999 6.22688L4.18199 6.06388L4.13699 5.86788C3.95671 4.98944 4.00666 4.07931 4.28199 3.22588L4.38199 2.94388L4.48799 2.69088C4.59239 2.4584 4.7816 2.27455 5.01699 2.17688L5.16099 2.12988L5.31499 2.09988Z" />
    </g>
  </symbol>
  <symbol id="tabler-filled-discord" viewBox="0 0 24 24" fill="currentcolor" xmlns="http://www.w3.org/2000/svg">
    <g clip-path="url(#clip0_7564_250)">
      <path d="M14.983 3L15.106 3.006C17.12 3.22 18.633 3.678 20.072 4.679C20.2437 4.79882 20.3735 4.96951 20.443 5.167C22.319 10.482 22.816 15.154 21.894 17.447C20.891 19.452 19.288 21 17.5 21C16.768 21 15.807 20.032 15.172 18.955C15.8808 18.826 16.5827 18.6614 17.275 18.462C17.4013 18.4259 17.5193 18.3652 17.6222 18.2835C17.7251 18.2018 17.8109 18.1006 17.8747 17.9858C17.9385 17.8709 17.979 17.7446 17.994 17.6141C18.009 17.4835 17.9981 17.3513 17.962 17.225C17.9259 17.0987 17.8652 16.9807 17.7835 16.8778C17.7018 16.7749 17.6007 16.6891 17.4858 16.6253C17.3709 16.5615 17.2446 16.521 17.1141 16.506C16.9835 16.491 16.8513 16.5019 16.725 16.538C13.405 17.488 10.595 17.488 7.275 16.538C7.01986 16.4651 6.7462 16.4965 6.51422 16.6253C6.28224 16.7541 6.11094 16.9699 6.038 17.225C5.96507 17.4801 5.99647 17.7538 6.12531 17.9858C6.25415 18.2178 6.46986 18.3891 6.725 18.462C7.442 18.666 8.141 18.832 8.828 18.956C8.193 20.031 7.232 21 6.5 21C4.712 21 3.109 19.452 2.072 17.371C1.184 15.154 1.682 10.481 3.557 5.167C3.62653 4.96951 3.7563 4.79882 3.928 4.679C5.367 3.678 6.88 3.22 8.894 3.006C9.07467 2.98673 9.25717 3.01704 9.4219 3.09368C9.58663 3.17032 9.72737 3.29039 9.829 3.441L9.892 3.548L10.543 4.833L10.68 4.817C11.5587 4.727 12.4443 4.727 13.323 4.817L13.457 4.833L14.107 3.549C14.1797 3.40479 14.2863 3.28035 14.4176 3.18631C14.5489 3.09227 14.7011 3.03143 14.861 3.009L14.983 3ZM9 10C8.52206 9.99998 8.05992 10.1711 7.69726 10.4824C7.3346 10.7937 7.09541 11.2246 7.023 11.697L7.005 11.851L7 12L7.005 12.15C7.03419 12.538 7.17595 12.9092 7.4129 13.2178C7.64986 13.5265 7.97172 13.7594 8.33904 13.8878C8.70637 14.0163 9.10319 14.0349 9.48089 13.9412C9.85859 13.8475 10.2007 13.6456 10.4654 13.3604C10.7301 13.0751 10.9059 12.7188 10.9711 12.3352C11.0363 11.9516 10.9882 11.5572 10.8326 11.2005C10.6771 10.8438 10.4208 10.5403 10.0953 10.327C9.7698 10.1138 9.38915 10.0001 9 10ZM15 10C14.5221 9.99998 14.0599 10.1711 13.6973 10.4824C13.3346 10.7937 13.0954 11.2246 13.023 11.697L13.005 11.851L13 12L13.005 12.15C13.0342 12.538 13.1759 12.9092 13.4129 13.2178C13.6499 13.5265 13.9717 13.7594 14.339 13.8878C14.7064 14.0163 15.1032 14.0349 15.4809 13.9412C15.8586 13.8475 16.2007 13.6456 16.4654 13.3604C16.7301 13.0751 16.9059 12.7188 16.9711 12.3352C17.0363 11.9516 16.9882 11.5572 16.8326 11.2005C16.6771 10.8438 16.4208 10.5403 16.0953 10.327C15.7698 10.1138 15.3891 10.0001 15 10Z" />
    </g>
  </symbol>
  <symbol id="tabler-filled-facebook" viewBox="0 0 24 24" fill="currentcolor" xmlns="http://www.w3.org/2000/svg">
    <g clip-path="url(#clip0_7202_1598)">
      <path d="M17.1538 4C17.3611 4.00003 17.5611 4.07196 17.716 4.20217C17.8709 4.33238 17.9698 4.5118 17.9941 4.7064L18 4.8V8C18 8.19595 17.9239 8.38507 17.7862 8.5315C17.6484 8.67793 17.4587 8.77147 17.2528 8.7944L17.1538 8.8H14.6154V9.6H17.1538C17.2743 9.60004 17.3934 9.6244 17.503 9.67144C17.6127 9.71849 17.7106 9.78713 17.7899 9.87278C17.8693 9.95844 17.9284 10.0591 17.9634 10.1681C17.9983 10.2771 18.0082 10.3919 17.9924 10.5048L17.9755 10.5944L17.1293 13.7944C17.0873 13.9524 16.9953 14.0945 16.8656 14.2017C16.7358 14.309 16.5745 14.3762 16.4033 14.3944L16.3077 14.4H14.6154V19.2C14.6154 19.3959 14.5393 19.5851 14.4015 19.7315C14.2638 19.8779 14.0741 19.9715 13.8682 19.9944L13.7692 20H10.3846C10.1774 20 9.97733 19.928 9.82245 19.7978C9.66758 19.6676 9.56863 19.4882 9.54438 19.2936L9.53846 19.2V14.4H7.84615C7.6389 14.4 7.43887 14.328 7.28399 14.1978C7.12912 14.0676 7.03017 13.8882 7.00592 13.6936L7 13.6V10.4C7.00003 10.2041 7.07612 10.0149 7.21384 9.8685C7.35156 9.72207 7.54133 9.62853 7.74715 9.6056L7.84615 9.6H9.53846V8.8C9.53841 7.5581 10.0475 6.36451 10.9587 5.47002C11.8699 4.57553 13.1124 4.04977 14.425 4.0032L14.6154 4H17.1538Z" />
    </g>
  </symbol>
  <symbol id="tabler-filled-instagram" viewBox="0 0 24 24" fill="currentcolor" xmlns="http://www.w3.org/2000/svg">
    <g clip-path="url(#clip0_7202_1769)">
      <path fill-rule="evenodd" clip-rule="evenodd" d="M5.17157 5.17157C4.42143 5.92172 4 6.93913 4 8V16C4 17.0609 4.42143 18.0783 5.17157 18.8284C5.92172 19.5786 6.93913 20 8 20H16C17.0609 20 18.0783 19.5786 18.8284 18.8284C19.5786 18.0783 20 17.0609 20 16V8C20 6.93913 19.5786 5.92172 18.8284 5.17157C18.0783 4.42143 17.0609 4 16 4H8C6.93913 4 5.92172 4.42143 5.17157 5.17157ZM16.5 6.5C17.0523 6.5 17.5 6.94772 17.5 7.5V7.51C17.5 8.06228 17.0523 8.51 16.5 8.51C15.9477 8.51 15.5 8.06228 15.5 7.51V7.5C15.5 6.94772 15.9477 6.5 16.5 6.5ZM9.17157 9.17157C9.92172 8.42143 10.9391 8 12 8C13.0609 8 14.0783 8.42143 14.8284 9.17157C15.5786 9.92172 16 10.9391 16 12C16 13.0609 15.5786 14.0783 14.8284 14.8284C14.0783 15.5786 13.0609 16 12 16C10.9391 16 9.92172 15.5786 9.17157 14.8284C8.42143 14.0783 8 13.0609 8 12C8 10.9391 8.42143 9.92172 9.17157 9.17157ZM12 10C11.4696 10 10.9609 10.2107 10.5858 10.5858C10.2107 10.9609 10 11.4696 10 12C10 12.5304 10.2107 13.0391 10.5858 13.4142C10.9609 13.7893 11.4696 14 12 14C12.5304 14 13.0391 13.7893 13.4142 13.4142C13.7893 13.0391 14 12.5304 14 12C14 11.4696 13.7893 10.9609 13.4142 10.5858C13.0391 10.2107 12.5304 10 12 10Z" />
    </g>
  </symbol>
  <symbol id="tabler-filled-linkedin" viewBox="0 0 24 24" fill="currentcolor" xmlns="http://www.w3.org/2000/svg">
    <path fill-rule="evenodd" clip-rule="evenodd" d="M4.58579 4.58579C4.21071 4.96086 4 5.46957 4 6V18C4 18.5304 4.21071 19.0391 4.58579 19.4142C4.96086 19.7893 5.46957 20 6 20H18C18.5304 20 19.0391 19.7893 19.4142 19.4142C19.7893 19.0391 20 18.5304 20 18V6C20 5.46957 19.7893 4.96086 19.4142 4.58579C19.0391 4.21071 18.5304 4 18 4H6C5.46957 4 4.96086 4.21071 4.58579 4.58579ZM7.99935 6.99935C8.55163 6.99935 8.99935 7.44706 8.99935 7.99935V8.00935C8.99935 8.56163 8.55163 9.00935 7.99935 9.00935C7.44706 9.00935 6.99935 8.56163 6.99935 8.00935V7.99935C6.99935 7.44706 7.44706 6.99935 7.99935 6.99935ZM7.99935 9.99935C8.55163 9.99935 8.99935 10.4471 8.99935 10.9993V15.9993C8.99935 16.5516 8.55163 16.9993 7.99935 16.9993C7.44706 16.9993 6.99935 16.5516 6.99935 15.9993V10.9993C6.99935 10.4471 7.44706 9.99935 7.99935 9.99935ZM11.9993 9.99935C12.2755 9.99935 12.5255 10.1113 12.7065 10.2922C13.1064 10.1012 13.5476 9.99935 13.9993 9.99935C14.795 9.99935 15.5581 10.3154 16.1207 10.878C16.6833 11.4406 16.9993 12.2037 16.9993 12.9993V15.9993C16.9993 16.5516 16.5516 16.9993 15.9993 16.9993C15.4471 16.9993 14.9993 16.5516 14.9993 15.9993V12.9993C14.9993 12.7341 14.894 12.4798 14.7065 12.2922C14.5189 12.1047 14.2646 11.9993 13.9993 11.9993C13.7341 11.9993 13.4798 12.1047 13.2922 12.2922C13.1047 12.4798 12.9993 12.7341 12.9993 12.9993V15.9993C12.9993 16.5516 12.5516 16.9993 11.9993 16.9993C11.4471 16.9993 10.9993 16.5516 10.9993 15.9993V12.9993V10.9993C10.9993 10.4471 11.4471 9.99935 11.9993 9.99935Z" />
  </symbol>
  <symbol id="tabler-filled-star" viewBox="0 0 24 24" fill="currentcolor" xmlns="http://www.w3.org/2000/svg">
    <path d="M11.7255 2.014C11.2765 2.06202 10.8465 2.22748 10.4757 2.49497C10.1048 2.76246 9.80514 3.12326 9.60458 3.54372L9.5576 3.64216C8.55885 5.73526 6.58686 7.19661 4.29371 7.54301V7.54301C3.29383 7.68698 2.44778 8.42285 2.13244 9.43067L2.05937 9.71062C1.86709 10.6405 2.14782 11.6183 2.81505 12.2902V12.2902C4.47796 13.9693 5.23402 16.3444 4.84774 18.6758L4.83595 18.747C4.75376 19.2579 4.81018 19.7825 4.99888 20.2619C5.18759 20.7413 5.50109 21.1564 5.90417 21.4608C6.30725 21.7651 6.78394 21.9465 7.28069 21.9846C7.77744 22.0227 8.27457 21.916 8.71623 21.6765V21.6765C10.7636 20.562 13.2399 20.5646 15.2866 21.6805V21.6805C15.7273 21.9218 16.2242 22.03 16.721 21.9929C17.2178 21.9558 17.6947 21.7748 18.0977 21.4705L18.3131 21.2905C18.6504 20.9762 18.9053 20.5779 19.054 20.1329C19.2027 19.688 19.2402 19.2111 19.163 18.747L19.1524 18.6829C18.7666 16.347 19.525 13.9678 21.1916 12.2862V12.2862C21.9223 11.5443 22.1838 10.4385 21.8684 9.43267L21.7704 9.16472C21.5862 8.73531 21.3004 8.36148 20.9396 8.07821C20.5787 7.79494 20.1547 7.61148 19.7072 7.54501V7.54501C17.4127 7.19609 15.4406 5.7321 14.4426 3.63682L14.3982 3.54372C14.1761 3.07998 13.8341 2.68983 13.4105 2.41713C12.9869 2.14442 12.4986 1.99997 12.0004 2L11.7255 2.014Z" />
  </symbol>
  <symbol id="tabler-filled-star2" viewBox="0 0 25 25" fill="currentcolor" xmlns="http://www.w3.org/2000/svg">
    <g clip-path="url(#clip0_1357_81732)">
      <path d="M12.5 17.7675L6.32802 21.0125L7.50702 14.1395L2.50702 9.27253L9.40702 8.27253L12.493 2.01953L15.579 8.27253L22.479 9.27253L17.479 14.1395L18.658 21.0125L12.5 17.7675Z" />
    </g>
  </symbol>
  <symbol id="tabler-filled-youtube" viewBox="0 0 24 24" fill="currentcolor" xmlns="http://www.w3.org/2000/svg">
    <g clip-path="url(#clip0_7202_1223)">
      <path d="M17.1111 4C17.6948 4 18.2727 4.11496 18.8119 4.33831C19.3512 4.56167 19.8411 4.88904 20.2538 5.30175C20.6665 5.71445 20.9939 6.2044 21.2172 6.74363C21.4406 7.28285 21.5556 7.86079 21.5556 8.44444V15.5556C21.5556 16.1392 21.4406 16.7171 21.2172 17.2564C20.9939 17.7956 20.6665 18.2855 20.2538 18.6983C19.8411 19.111 19.3512 19.4383 18.8119 19.6617C18.2727 19.885 17.6948 20 17.1111 20H6.44444C5.86079 20 5.28285 19.885 4.74363 19.6617C4.2044 19.4383 3.71445 19.111 3.30175 18.6983C2.46825 17.8648 2 16.7343 2 15.5556V8.44444C2 7.2657 2.46825 6.13524 3.30175 5.30175C4.13524 4.46825 5.2657 4 6.44444 4H17.1111ZM9.11111 9.33333V14.6667C9.11124 14.8239 9.15304 14.9782 9.23228 15.114C9.31151 15.2498 9.42533 15.3621 9.56213 15.4395C9.69893 15.517 9.85382 15.5567 10.011 15.5548C10.1682 15.5528 10.322 15.5092 10.4569 15.4284L14.9013 12.7618C15.0328 12.6828 15.1415 12.5711 15.217 12.4376C15.2925 12.3041 15.3322 12.1534 15.3322 12C15.3322 11.8466 15.2925 11.6959 15.217 11.5624C15.1415 11.4289 15.0328 11.3172 14.9013 11.2382L10.4569 8.57156C10.322 8.49076 10.1682 8.44716 10.011 8.44522C9.85382 8.44327 9.69893 8.48304 9.56213 8.56048C9.42533 8.63791 9.31151 8.75024 9.23228 8.88601C9.15304 9.02178 9.11124 9.17614 9.11111 9.33333Z" />
    </g>
  </symbol>
  <symbol id="tabler-filled-dribble" xmlns="http://www.w3.org/2000/svg"  viewBox="0 0 24 24"  fill="currentColor">
    <path stroke="none" d="M0 0h24v24H0z" fill="none"/>
    <path d="M14.384 14.38a22.877 22.877 0 0 1 1.056 4.863l.064 .644l.126 1.431a10 10 0 0 1 -9.15 -.98l2.08 -2.087l.246 -.24c1.793 -1.728 3.41 -2.875 5.387 -3.566l.191 -.065zm6.09 -.783l.414 .003l.981 .014a9.997 9.997 0 0 1 -4.319 6.704l-.054 -.605c-.18 -2.057 -.55 -3.958 -1.163 -5.814c1.044 -.182 2.203 -.278 3.529 -.298l.611 -.004zm-7.869 -3.181a24.91 24.91 0 0 1 1.052 2.098c-2.276 .77 -4.142 2.053 -6.144 3.967l-.355 .344l-2.236 2.24a10 10 0 0 1 -2.917 -6.741l-.005 -.324l.004 -.25h1.096l.467 -.002c3.547 -.026 6.356 -.367 8.938 -1.295l.1 -.037zm9.388 1.202l-1.515 -.02c-1.86 -.003 -3.45 .124 -4.865 .402a26.112 26.112 0 0 0 -1.163 -2.38c1.393 -.695 2.757 -1.597 4.179 -2.75l.428 -.354l.816 -.682a10 10 0 0 1 2.098 5.409l.022 .375zm-14.663 -8.46l1.266 1.522c1.145 1.398 2.121 2.713 2.949 3.985c-2.26 .766 -4.739 1.052 -7.883 1.081l-.562 .004h-.844a10 10 0 0 1 5.074 -6.593zm9.67 .182c.53 .306 1.026 .657 1.483 1.046l-1.025 .857c-1.379 1.128 -2.688 1.993 -4.034 2.649c-.89 -1.398 -1.943 -2.836 -3.182 -4.358l-.474 -.574l-.485 -.584a10 10 0 0 1 7.717 .964z" />
  </symbol>
</svg>